<?xml version="1.0" encoding="UTF-8"?>
<!-- Created with Inkscape (http://www.inkscape.org/) -->
<svg width="73.805mm" height="83.16mm" version="1.1" viewBox="0 0 73.805 83.16" xmlns="http://www.w3.org/2000/svg">
 <g transform="translate(-18.595 -30.728)">
  <path d="m53.533 113.68c-1.1281-0.31862-32.183-18.335-33.051-19.175-0.42708-0.413-1.0096-1.248-1.2944-1.8555l-0.51784-1.1046-0.0517-18.979c-0.0514-18.881-0.0495-18.985 0.35956-20.078 0.87198-2.3306 0.86704-2.3272 17.856-12.147 8.4863-4.9054 15.869-9.0771 16.406-9.2704 1.1665-0.41997 3.0236-0.46435 4.2305-0.10111 0.84897 0.2555 30.684 17.363 32.335 18.541 0.98187 0.7006 1.695 1.6824 2.2138 3.0475 0.36861 0.9701 0.38133 1.6288 0.38133 19.749s-0.0127 18.779-0.38133 19.749c-0.5187 1.3651-1.2319 2.3469-2.2138 3.0476-1.6441 1.1732-31.493 18.288-32.339 18.543-0.99712 0.30009-2.9306 0.31656-3.9328 0.0335zm7.8556-17.416c4.6912-1.2208 8.5026-3.3878 11.769-6.6914 1.3128-1.3276 3.6228-4.3265 3.6124-4.6898-5e-3 -0.16519-10.152-6.1689-10.618-6.2825-0.12285-0.0299-0.37614 0.20423-0.56287 0.52033-0.56722 0.96024-2.572 2.8156-3.8838 3.5943-1.815 1.0774-3.4358 1.5361-5.8309 1.6501-2.4843 0.11826-3.852-0.17606-6.226-1.3398-1.2174-0.59676-1.9993-1.1612-3.042-2.1963-1.5625-1.5509-2.3884-2.8729-3.0669-4.9087-0.59304-1.7794-0.6375-5.3984-0.0888-7.2266 1.2844-4.2791 4.7292-7.597 9.0295-8.6969 4.9109-1.256 10.383 0.796 13.259 4.9723 0.41208 0.59832 0.77856 1.0878 0.81439 1.0878 0.057 0 6.7378-4.0112 9.2938-5.5801 0.51025-0.31319 0.92773-0.64361 0.92773-0.73425 0-0.43526-2.2307-3.3214-3.7176-4.81-3.2632-3.2669-6.9727-5.366-11.614-6.5723-2.5951-0.67441-6.9108-0.84856-9.6984-0.39136-10.347 1.6971-18.172 9.2716-20.4 19.748-0.49571 2.3306-0.45974 7.0433 0.0723 9.4726 2.2228 10.15 9.9687 17.657 20.053 19.435 2.5259 0.44537 7.5186 0.26373 9.9187-0.36085zm15.973-21.223v-1.3672h1.3463c1.5446 0 1.5834-0.0408 1.5834-1.6672v-1.0493l-2.6367-0.1154-0.1154-2.6367h-2.7165v2.7344h-2.7344v2.7344h2.5391v2.7344h2.7344zm10.352 0v-1.3672h2.7344v-2.7344h-2.7344v-2.7344h-2.7344v2.7344h-2.7344v2.7344h2.7344v2.7344h2.7344z" fill="#01e1f9" stroke-width=".19531"/>
 </g>
</svg>
