<?xml version="1.0" encoding="UTF-8" standalone="no"?>
<!-- Created with Inkscape (http://www.inkscape.org/) -->

<svg
   width="100mm"
   height="113.73447mm"
   viewBox="0 0 100 113.73446"
   version="1.1"
   id="svg292"
   inkscape:version="1.1.1 (3bf5ae0d25, 2021-09-20)"
   sodipodi:docname="cssLogo.svg"
   xmlns:inkscape="http://www.inkscape.org/namespaces/inkscape"
   xmlns:sodipodi="http://sodipodi.sourceforge.net/DTD/sodipodi-0.dtd"
   xmlns="http://www.w3.org/2000/svg"
   xmlns:svg="http://www.w3.org/2000/svg">
  <sodipodi:namedview
     id="namedview294"
     pagecolor="#ffffff"
     bordercolor="#666666"
     borderopacity="1.0"
     inkscape:pageshadow="2"
     inkscape:pageopacity="0.0"
     inkscape:pagecheckerboard="0"
     inkscape:document-units="mm"
     showgrid="false"
     fit-margin-top="0"
     fit-margin-left="0"
     fit-margin-right="0"
     fit-margin-bottom="0"
     inkscape:zoom="0.72337262"
     inkscape:cx="-69.12067"
     inkscape:cy="672.54412"
     inkscape:window-width="2400"
     inkscape:window-height="1271"
     inkscape:window-x="-9"
     inkscape:window-y="-9"
     inkscape:window-maximized="1"
     inkscape:current-layer="layer1" />
  <defs
     id="defs289" />
  <g
     inkscape:label="Capa 1"
     inkscape:groupmode="layer"
     id="layer1">
    <path
       style="fill:#01E1F9;stroke-width:0.402635"
       d="M 44.159389,112.14746 C 40.837648,111.18852 35.49265,109.67274 32.281633,108.7791 20.278397,105.43849 8.7248858,102.18016 8.6494059,102.11434 8.559317,102.03582 8.2591929,98.967177 7.9162006,94.619382 7.785176,92.958519 7.6039937,90.693695 7.51357,89.586438 7.4231767,88.479196 7.2455097,86.214372 7.1188222,84.553494 6.9922107,82.892617 6.809948,80.899581 6.7139393,80.124497 6.6179155,79.349428 6.4344505,76.994013 6.3061955,74.890238 6.1779101,72.786463 5.9994366,70.431048 5.9094998,69.655979 5.8195631,68.880895 5.6355199,66.706662 5.5005387,64.824351 5.3655574,62.942025 5.1819403,60.677201 5.0924905,59.791407 4.913454,58.018086 4.1170342,48.703148 3.483155,40.968449 3.369783,39.584244 3.1941856,37.455193 3.0930943,36.237212 2.9920486,35.019246 2.807838,32.754422 2.6838744,31.204268 2.5598499,29.654115 2.3809808,27.479882 2.2862504,26.37264 2.1915961,25.265398 2.010703,22.909968 1.8843959,21.138381 1.7580888,19.366779 1.5732695,17.011364 1.4736542,15.904107 1.1348924,12.138115 0.91590932,9.4673587 0.6813585,6.2408506 0.55261653,4.4692637 0.34656851,2.340319 0.22359406,1.5098876 L 0,0 H 49.999998 100 l -0.231081,1.9125182 c -0.287204,2.3771155 -0.533595,5.001869 -0.859863,9.1599608 -0.13909,1.771602 -0.317898,3.855244 -0.397502,4.630313 -0.07959,0.775069 -0.254166,2.76812 -0.3879,4.428997 -0.133764,1.660863 -0.320348,3.835096 -0.414713,4.831629 -0.09435,0.996517 -0.268639,2.944265 -0.387276,4.328332 -0.351332,4.099001 -0.644121,7.430512 -0.822731,9.361276 -0.09222,0.996533 -0.366154,4.076692 -0.608846,6.844812 -0.242677,2.76812 -0.508105,5.667096 -0.589809,6.442166 -0.08172,0.775069 -0.273326,2.949302 -0.425807,4.831628 -0.152467,1.882326 -0.330697,3.875377 -0.396072,4.428998 -0.06528,0.553621 -0.233379,2.637262 -0.373382,4.630313 -0.140003,1.993035 -0.331731,4.257859 -0.426096,5.032943 -0.09435,0.775069 -0.264454,2.496331 -0.377994,3.825037 -0.113524,1.32869 -0.292773,3.412331 -0.398339,4.630313 -0.105611,1.217966 -0.2981,3.573381 -0.427892,5.234258 -0.129807,1.660878 -0.308052,3.653914 -0.396133,4.428998 -0.08811,0.775069 -0.29358,3.130484 -0.456699,5.234259 -0.163103,2.103775 -0.327196,4.006219 -0.364662,4.227667 -0.03744,0.221464 -0.09572,1.151556 -0.129503,2.066902 -0.05067,1.37512 -0.218709,1.69801 -0.967254,1.85843 -0.498259,0.10683 -5.616756,1.56449 -11.374459,3.23933 -5.757688,1.67483 -14.315133,4.14949 -19.016559,5.49924 -4.70141,1.34975 -8.778102,2.52803 -9.059295,2.61839 -0.281208,0.0904 -3.229065,-0.6203 -6.550805,-1.57925 z M 56.19588,90.414526 c 3.123712,-0.983978 8.664943,-2.715908 12.31385,-3.848746 3.648921,-1.132838 6.745333,-2.239227 6.880954,-2.458652 0.13559,-0.219409 0.283841,-1.159971 0.329433,-2.090124 0.04565,-0.930153 0.759578,-9.434458 1.586676,-18.898469 L 78.810594,45.911243 65.712666,45.805175 C 54.616052,45.71539 52.799299,45.620006 53.822645,45.181355 54.48699,44.896585 60.873809,42.274054 68.015549,39.353513 L 81.000546,34.043409 V 27.892861 21.742297 H 49.350003 17.699464 l 0.212911,0.905926 c 0.117025,0.498274 0.533884,3.304453 0.926182,6.235981 l 0.71327,5.330039 14.662777,0.105611 14.662782,0.105611 -14.337412,6.216427 c -8.445468,3.661811 -14.337407,6.434389 -14.337407,6.746809 0,0.532453 1.002103,7.63936 1.422401,10.087649 l 0.224629,1.308572 h 21.74876 21.748749 l -0.229651,1.711203 c -0.126307,0.941156 -0.5071,4.608445 -0.846212,8.149504 -0.339112,3.541073 -0.745136,6.545737 -0.902274,6.677021 -0.157139,0.131329 -3.547055,0.817709 -7.53314,1.525364 l -7.247443,1.286659 -6.200158,-1.615012 C 38.978148,75.631402 36.109637,74.826202 36.013765,74.73033 35.88898,74.605545 34.738657,66.365724 34.7011,65.327753 c -0.0091,-0.261456 -12.056681,-0.0627 -12.206363,0.201316 -0.165553,0.292058 1.332906,19.100347 1.541526,19.348943 0.145177,0.173072 25.233771,7.216475 25.918766,7.276478 0.308753,0.02709 3.117139,-0.755879 6.240851,-1.739858 z"
       id="path546"
       sodipodi:nodetypes="csssscssssscsscsssscccscsssssssscssssssssssssscccssssccssccccccscccssscccsssscsscssscc" />
  </g>
</svg>
