<?xml version="1.0" encoding="UTF-8" standalone="no"?>
<!-- Created with Inkscape (http://www.inkscape.org/) -->

<svg
   width="74.884659mm"
   height="73.724228mm"
   viewBox="0 0 74.884659 73.724227"
   version="1.1"
   id="svg5"
   inkscape:version="1.1.1 (3bf5ae0d25, 2021-09-20)"
   sodipodi:docname="github_logo.svg"
   xmlns:inkscape="http://www.inkscape.org/namespaces/inkscape"
   xmlns:sodipodi="http://sodipodi.sourceforge.net/DTD/sodipodi-0.dtd"
   xmlns="http://www.w3.org/2000/svg"
   xmlns:svg="http://www.w3.org/2000/svg">
  <sodipodi:namedview
     id="namedview7"
     pagecolor="##01E1F9"
     bordercolor="#666666"
     borderopacity="1.0"
     inkscape:pageshadow="2"
     inkscape:pageopacity="0.0"
     inkscape:pagecheckerboard="0"
     inkscape:document-units="mm"
     showgrid="false"
     fit-margin-top="0"
     fit-margin-left="0"
     fit-margin-right="0"
     fit-margin-bottom="0"
     inkscape:zoom="0.72337262"
     inkscape:cx="16.588961"
     inkscape:cy="-148.60944"
     inkscape:window-width="1586"
     inkscape:window-height="1091"
     inkscape:window-x="294"
     inkscape:window-y="76"
     inkscape:window-maximized="0"
     inkscape:current-layer="layer1" />
  <defs
     id="defs2" />
  <g
     inkscape:label="Capa 1"
     inkscape:groupmode="layer"
     id="layer1"
     transform="translate(-100.74804,-129.1871)">
    <path
       style="fill:#01E1F9;stroke-width:0.178571"
       d="m 125.0437,202.37048 c -2.25302,-0.83714 -5.29243,-2.40573 -7.43403,-3.83657 -9.0185,-6.02546 -14.80604,-15.12157 -16.54552,-26.0041 -0.42399,-2.65257 -0.42094,-8.51496 0.006,-11.13634 1.53285,-9.41616 6.05512,-17.55469 12.97193,-23.345 10.07503,-8.43416 23.37996,-11.03767 35.72355,-6.99038 17.42653,5.71392 28.19613,23.31116 25.43763,41.5644 -1.85195,12.25448 -9.66941,22.94988 -20.68881,28.30523 -2.39119,1.1621 -4.54755,1.98361 -5.20675,1.98361 -0.70391,0 -1.30307,-0.3713 -1.5963,-0.98923 -0.2332,-0.49143 -0.27687,-1.57042 -0.2791,-6.8949 -0.002,-4.94352 -0.06,-6.55553 -0.2671,-7.43399 -0.30162,-1.27933 -0.79856,-2.33696 -1.54201,-3.28187 l -0.51422,-0.65357 0.7612,-0.11573 c 6.05666,-0.92092 9.91166,-2.74324 12.53754,-5.92671 2.38073,-2.88627 3.66647,-7.17308 3.66903,-12.23293 0.002,-4.03268 -1.06849,-7.32763 -3.18975,-9.81763 l -0.60152,-0.70608 0.29752,-1.06036 c 0.65304,-2.32739 0.4877,-5.77364 -0.39089,-8.14784 -0.29928,-0.80873 -0.36408,-0.86781 -1.01024,-0.92109 -1.69986,-0.14017 -5.14017,1.11936 -8.10706,2.96806 l -1.48514,0.9254 -2.17558,-0.43789 c -5.19674,-1.04598 -10.29,-0.98072 -15.39344,0.19724 l -1.25357,0.28934 -1.30651,-0.84518 c -2.74582,-1.77626 -6.28427,-3.12933 -8.18362,-3.12933 -0.87613,0 -0.91816,0.06 -1.42638,2.03463 -0.59218,2.30091 -0.59535,5.63139 -0.007,7.32743 l 0.24331,0.70135 -0.85577,1.13063 c -2.39952,3.17019 -3.32739,7.03046 -2.85341,11.87112 0.93065,9.50457 5.85991,14.37686 15.95162,15.76724 l 0.84085,0.11585 -0.59909,0.83838 c -0.7164,1.00255 -1.1187,1.92458 -1.41765,3.24909 l -0.22168,0.98214 -1.15021,0.3905 c -2.31986,0.78759 -4.43521,0.71894 -6.32878,-0.20539 -1.15137,-0.56203 -2.18769,-1.56762 -3.27738,-3.18016 -1.57746,-2.33435 -3.46165,-3.72129 -5.42015,-3.98973 -0.89696,-0.12294 -2.01993,0.16352 -2.16956,0.55345 -0.14095,0.36731 0.49728,1.08093 1.69284,1.89282 1.34817,0.91553 2.4814,2.34306 3.3902,4.27065 0.39359,0.83483 0.81138,1.71875 0.92841,1.96429 0.35627,0.74748 2.14264,2.43129 3.08713,2.90991 1.70892,0.86597 2.84136,1.10045 5.25065,1.08719 1.22768,-0.007 2.5697,-0.0959 2.98227,-0.19802 0.41257,-0.10215 0.79426,-0.14159 0.84821,-0.0876 0.0539,0.0539 0.0981,1.69978 0.0981,3.65741 0,3.88557 -0.13114,4.53235 -0.99915,4.92784 -0.67614,0.30807 -1.27615,0.23626 -2.82045,-0.33754 z"
       id="path1844" />
  </g>
</svg>
