<?xml version="1.0" encoding="UTF-8" standalone="no"?>
<!-- Created with Inkscape (http://www.inkscape.org/) -->

<svg
   width="100mm"
   height="100.02191mm"
   viewBox="0 0 100 100.02191"
   version="1.1"
   id="svg5"
   inkscape:version="1.1.1 (3bf5ae0d25, 2021-09-20)"
   sodipodi:docname="dibujo.svg"
   xmlns:inkscape="http://www.inkscape.org/namespaces/inkscape"
   xmlns:sodipodi="http://sodipodi.sourceforge.net/DTD/sodipodi-0.dtd"
   xmlns="http://www.w3.org/2000/svg"
   xmlns:svg="http://www.w3.org/2000/svg">
  <sodipodi:namedview
     id="namedview7"
     pagecolor="#ffffff"
     bordercolor="#666666"
     borderopacity="1.0"
     inkscape:pageshadow="2"
     inkscape:pageopacity="0.0"
     inkscape:pagecheckerboard="0"
     inkscape:document-units="mm"
     showgrid="false"
     fit-margin-top="0"
     fit-margin-left="0"
     fit-margin-right="0"
     fit-margin-bottom="0"
     inkscape:zoom="0.72337262"
     inkscape:cx="396.75265"
     inkscape:cy="560.56864"
     inkscape:window-width="1586"
     inkscape:window-height="1091"
     inkscape:window-x="294"
     inkscape:window-y="76"
     inkscape:window-maximized="0"
     inkscape:current-layer="layer1" />
  <defs
     id="defs2" />
  <g
     inkscape:label="Capa 1"
     inkscape:groupmode="layer"
     id="layer1">
    <g
       id="g1560"
       transform="matrix(1.3571806,0,0,1.3571806,-19.848141,-25.805312)"
       style="fill:#01E1F9">
      <path
         style="fill:#01E1F9;fill-opacity:1;stroke-width:0.15625"
         d="M 47.782551,92.49201 C 38.961007,91.477409 31.504509,87.932415 25.443682,81.871589 20.974628,77.402534 17.812395,72.053576 16.078896,66.030935 13.532526,57.184153 14.34267,48.01945 18.40882,39.673845 22.041781,32.21734 27.815446,26.445496 35.291179,22.796809 c 7.962539,-3.886282 16.682113,-4.798808 25.246591,-2.642122 11.302451,2.846155 20.796072,11.19018 25.141294,22.096902 1.257195,3.155618 1.998781,6.234401 2.428892,10.083823 0.383394,3.431328 0.215408,6.788395 -0.532838,10.648317 -2.613786,13.483558 -12.984956,24.692264 -26.205176,28.321406 -4.597113,1.261974 -9.335624,1.67589 -13.587391,1.186875 z m -6.98275,-31.210106 0.03987,-14.492187 h -5.157059 -5.15706 V 61.2168 c 0,7.934896 0.04783,14.474915 0.106294,14.533378 0.05846,0.05846 2.361197,0.08776 5.117187,0.0651 l 5.010894,-0.04119 z m 14.291967,5.859375 c 0.05259,-8.491153 0.06265,-8.736898 0.398442,-9.739864 0.811416,-2.423569 2.308082,-3.472234 4.952457,-3.470025 2.995703,0.0025 4.504079,1.66795 4.923728,5.436452 0.08613,0.773437 0.157172,4.79994 0.157878,8.947784 l 0.0013,7.541534 4.301727,-0.04153 4.301728,-0.04153 -0.0072,-9.402172 c -0.004,-5.171194 -0.07449,-9.933056 -0.156758,-10.581917 -0.630834,-4.975824 -2.601709,-7.57183 -6.564478,-8.646685 -0.798592,-0.216609 -1.633333,-0.275476 -3.90625,-0.275476 -2.758511,0 -2.952942,0.02043 -4.254129,0.446942 -1.6103,0.527841 -3.116399,1.487786 -3.848765,2.453097 -0.289468,0.38154 -0.571065,0.711437 -0.625768,0.733101 -0.0547,0.02167 -0.07779,-0.802212 -0.05129,-1.83084 l 0.04817,-1.870232 -4.071717,-0.04416 -4.071718,-0.04416 1.1e-4,14.570312 1.09e-4,14.570313 h 4.209255 4.209253 z M 37.466898,41.999173 c 1.314856,-0.460667 2.62653,-1.852395 3.069022,-3.256331 0.28022,-0.889075 0.244162,-2.203182 -0.08789,-3.203125 -0.394611,-1.188339 -1.847,-2.648947 -3.021475,-3.038572 -0.999072,-0.331438 -2.529526,-0.33783 -3.446247,-0.01439 -1.356229,0.478506 -2.584648,1.704041 -3.071959,3.064746 -0.316086,0.882598 -0.3178,2.526592 -0.0035,3.40387 0.646272,1.804173 2.006896,2.884817 4.23013,3.359683 0.443556,0.09474 1.611533,-0.06347 2.331969,-0.315878 z"
         id="path1570" />
      <path
         style="fill:#01E1F9;fill-opacity:1;stroke-width:0.15625"
         d="M 49.197429,92.618321 C 37.744395,91.585478 28.509835,86.567264 21.938459,77.805342 14.350231,67.687601 12.549683,54.042196 17.247045,42.251589 c 3.724134,-9.347761 11.26762,-16.891247 20.615381,-20.615382 10.584147,-4.216709 22.756322,-3.224991 32.506878,2.648472 8.38901,5.053305 14.260022,12.94461 16.733171,22.491274 0.985903,3.805709 1.381968,7.934239 1.091282,11.37534 -0.592042,7.008502 -2.581629,12.835219 -6.230887,18.247799 -5.595894,8.299836 -14.361074,13.985442 -24.171691,15.67917 -3.179586,0.548931 -6.312311,0.745802 -8.59375,0.540059 z m -8.4375,-31.375479 v -14.53125 h -5.078125 -5.078125 l -0.04031,14.375 c -0.02217,7.90625 -0.0064,14.463867 0.03499,14.572483 0.05899,0.154698 1.167861,0.18855 5.118431,0.15625 l 5.043134,-0.04123 z m 14.300017,6.679687 c 0.0017,-4.361328 0.06768,-8.37609 0.146566,-8.921695 0.339294,-2.346774 1.152472,-3.785669 2.544984,-4.50328 1.092208,-0.562853 3.479577,-0.711059 4.594597,-0.285229 1.442967,0.551073 2.338894,1.758859 2.823944,3.806912 0.202288,0.854131 0.256445,2.504281 0.308358,9.39548 l 0.06297,8.359375 h 4.328031 4.328031 l -0.0052,-9.375 c -0.0062,-11.244635 -0.11393,-12.379708 -1.430763,-15.078125 -1.50699,-3.088088 -4.453644,-4.557516 -9.18905,-4.582372 -2.402725,-0.01261 -3.987889,0.289701 -5.641767,1.075969 -1.186398,0.564023 -2.498534,1.632171 -2.876966,2.342 -0.217718,0.408378 -0.235843,0.320179 -0.309392,-1.505591 l -0.07813,-1.939381 -4.023437,-0.0417 -4.023438,-0.0417 v 14.612012 14.612013 h 4.21875 4.21875 l 0.0031,-7.929688 z M 37.852742,41.836131 c 3.010523,-1.44278 3.851468,-5.197853 1.754031,-7.832274 -0.251138,-0.315434 -0.835567,-0.8017 -1.298731,-1.08059 -2.050991,-1.234991 -4.592391,-0.917016 -6.240005,0.780739 -1.977752,2.037937 -1.969011,5.159183 0.02002,7.148211 1.539864,1.539864 3.799783,1.925586 5.764688,0.983914 z"
         id="path1568" />
      <path
         style="fill:#01E1F9;fill-opacity:1;stroke-width:0.15625"
         d="m 49.822429,92.637507 c -0.257812,-0.03564 -1.242187,-0.140634 -2.1875,-0.23332 C 41.102275,91.763671 34.853215,89.319292 29.377115,85.262464 27.513732,83.882025 23.640692,80.059515 22.289359,78.267179 18.597796,73.37089 16.259193,68.01626 15.195285,62.024092 14.725352,59.37732 14.612984,54.215484 14.96293,51.350443 16.841322,35.971895 28.013868,23.591682 43.266228,19.987776 c 4.866159,-1.149801 11.477476,-1.14767 16.399951,0.0053 5.270141,1.234388 9.8217,3.375509 14.211838,6.685459 1.792336,1.351332 5.614845,5.224373 6.995284,7.087756 3.365694,4.543175 5.594595,9.548536 6.669105,14.976564 0.464645,2.347216 0.846139,6.646114 0.727964,8.203125 -0.588983,7.760112 -2.484163,13.68962 -6.117694,19.140625 -6.774891,10.163659 -17.567747,16.105485 -30.064622,16.551576 -0.988281,0.03528 -2.007812,0.03498 -2.265625,-6.25e-4 z M 40.838054,61.242842 V 46.633467 h -5.15625 -5.15625 v 14.609375 14.609375 h 5.15625 5.15625 z m 14.256847,6.054687 c 0.05224,-7.512604 0.09223,-8.667464 0.328334,-9.48049 0.814958,-2.806335 2.356404,-3.930521 5.232374,-3.816005 2.280641,0.09081 3.459703,0.956656 4.259951,3.128294 0.363018,0.985122 0.364449,1.018945 0.417304,9.855701 l 0.05304,8.867188 h 4.444826 4.444828 v -8.41481 c 0,-4.628145 -0.07194,-9.321504 -0.159872,-10.429687 -0.477506,-6.018013 -2.60359,-8.978688 -7.183878,-10.003894 -1.796754,-0.402169 -5.481717,-0.362794 -7.09735,0.07584 -2.063417,0.5602 -3.649858,1.550567 -4.64152,2.897561 l -0.44863,0.609381 v -1.979162 -1.979164 l -4.064211,0.04166 -4.064211,0.04166 9.38e-4,14.492187 c 4.69e-4,7.970703 0.0013,14.527344 0.0017,14.570313 4.69e-4,0.04297 1.894448,0.07813 4.20888,0.07813 h 4.208057 l 0.05948,-8.554688 z M 37.942451,41.803826 c 1.808345,-0.890245 2.81468,-2.515501 2.816453,-4.548645 9.38e-4,-1.012767 -0.06959,-1.318603 -0.509997,-2.213194 -0.91565,-1.859948 -2.529245,-2.867892 -4.567103,-2.852869 -2.022309,0.01491 -3.66692,1.024339 -4.532065,2.781697 -0.615038,1.249322 -0.748058,2.406569 -0.410208,3.568733 0.931944,3.205773 4.259011,4.713559 7.20292,3.264278 z"
         id="path1566" />
      <path
         style="fill:#01E1F9;fill-opacity:1;stroke-width:0.15625"
         d="m 50.525554,92.62621 c -0.300781,-0.02805 -1.425781,-0.127639 -2.5,-0.221314 C 43.332556,91.995651 39.159662,90.787831 34.803679,88.5779 21.090225,81.620618 13.173826,66.807265 14.976717,51.477217 c 0.758868,-6.452685 3.287303,-12.699142 7.273368,-17.96875 1.130233,-1.494174 3.597668,-4.094314 5.306719,-5.592128 2.337874,-2.048913 6.248424,-4.490591 9.262961,-5.783627 10.213622,-4.380965 21.834586,-3.980149 31.516817,1.087039 10.209797,5.343291 17.21576,14.823209 19.289349,26.100834 0.131187,0.713491 0.339404,2.474991 0.462704,3.914444 0.194093,2.265916 0.194435,2.96846 0.0026,5.234375 -0.461269,5.447253 -1.578669,9.451377 -3.928088,14.076036 -5.117057,10.072552 -14.542643,17.169463 -25.746928,19.385919 -1.261192,0.249492 -7.100379,0.866648 -7.293372,0.770851 -0.02771,-0.01375 -0.296471,-0.04795 -0.597253,-0.076 z m -9.6875,-31.383368 V 46.633467 h -5.15625 -5.15625 v 14.609375 14.609375 h 5.15625 5.15625 z m 14.260306,6.054687 c 0.07143,-9.128815 0.09394,-9.4045 0.896086,-10.97684 0.467654,-0.916675 1.578096,-1.825144 2.590754,-2.119532 1.15469,-0.335678 3.16026,-0.250522 4.043015,0.171664 1.378191,0.659136 2.234305,2.042879 2.579325,4.168988 0.09368,0.577297 0.159891,4.348242 0.160585,9.146345 l 0.0012,8.164063 h 4.453125 4.453125 v -8.800988 c 0,-4.940479 -0.07177,-9.549678 -0.163612,-10.507812 -0.340353,-3.550622 -1.130889,-5.608358 -2.791283,-7.265605 -1.85683,-1.853311 -4.020422,-2.562086 -7.826355,-2.563847 -1.70802,-7.81e-4 -2.55404,0.0717 -3.4375,0.294533 -2.212737,0.558116 -3.843581,1.550323 -4.864384,2.9595 l -0.448116,0.618606 V 48.610035 46.633467 H 50.6037 46.463075 v 14.609375 14.609375 h 4.284185 4.284182 z M 37.143737,42.181121 c 1.451238,-0.440286 2.438341,-1.29152 3.171725,-2.735154 0.374764,-0.73771 0.437131,-1.047405 0.44052,-2.1875 0.0035,-1.159933 -0.05251,-1.436955 -0.441836,-2.1875 -0.599518,-1.155747 -1.244762,-1.80745 -2.366717,-2.390413 -0.834322,-0.433509 -1.083669,-0.487144 -2.265625,-0.487331 -1.149751,-1.56e-4 -1.443542,0.05897 -2.1875,0.4404 -1.285311,0.658992 -2.273572,1.782037 -2.655069,3.01718 -0.390231,1.263418 -0.394489,1.945186 -0.01967,3.149473 0.826559,2.655738 3.682258,4.182369 6.324175,3.380845 z"
         id="path1564" />
      <path
         style="fill:#01E1F9;fill-opacity:1;stroke-width:0.15625"
         d="m 35.642742,75.892429 5.195312,-0.04443 V 61.242842 46.637679 l -5.195312,-0.04442 -5.195313,-0.04443 5.234375,0.0033 5.234375,0.0033 v 14.6875 14.6875 l -5.234375,0.0032 -5.234375,0.0033 5.195313,-0.04443 z m 10.736043,-0.07928 c -0.04095,-0.107422 -0.05596,-6.734375 -0.03334,-14.726562 l 0.04112,-14.53125 0.03824,14.645965 0.03824,14.645966 4.335938,0.04411 4.335937,0.04411 -4.34084,0.03649 c -3.356047,0.02821 -4.357735,-0.0078 -4.415304,-0.158825 z m 18.90593,0 c -0.04113,-0.107422 -0.05586,-3.886719 -0.03273,-8.398437 l 0.04205,-8.203125 0.03764,8.317915 0.03764,8.317918 4.492188,0.04395 4.492187,0.04395 -4.49709,0.03657 c -3.48096,0.02831 -4.513989,-0.0076 -4.571874,-0.158742 z M 30.444248,61.242842 c 8e-6,-7.992188 0.019,-11.238821 0.04221,-7.214741 0.02321,4.024081 0.0232,10.563144 -1.7e-5,14.53125 -0.02322,3.968108 -0.04221,0.675678 -0.0422,-7.316509 z m 43.858362,5.390625 c -0.02543,-7.010375 -0.08676,-9.541185 -0.263184,-10.859375 -0.279939,-2.091703 -0.269597,-2.350785 0.04055,-1.015625 0.191089,0.822637 0.248787,2.722826 0.30364,10 0.03725,4.941406 0.04172,9.441406 0.0099,10 -0.03178,0.558593 -0.0727,-3.097657 -0.09094,-8.125 z M 55.235968,59.755326 c -0.02763,-1.040092 0.466025,-2.912534 0.984336,-3.733594 0.841552,-1.333103 2.327547,-2.044515 4.270577,-2.044515 1.950614,0 3.76352,1.157758 4.159362,2.65625 0.05675,0.214843 -0.0704,0.06766 -0.282554,-0.327083 -0.518782,-0.965241 -1.324754,-1.640499 -2.305793,-1.931834 -2.182031,-0.647994 -4.687862,0.06707 -5.66624,1.616925 -0.49621,0.786046 -0.898028,2.163153 -1.030763,3.532617 l -0.106011,1.09375 z m 9.709007,-1.586539 c -0.102155,-0.537536 -0.160204,-1.00287 -0.128997,-1.034077 0.09074,-0.09074 0.443661,1.62463 0.376011,1.827579 -0.0337,0.101109 -0.14486,-0.255966 -0.247014,-0.793502 z m 8.48621,-5.386275 c -0.849371,-2.710042 -2.529814,-4.512459 -5.084587,-5.453656 -0.305481,-0.112541 -0.441819,-0.209574 -0.302975,-0.21563 0.454356,-0.01982 2.443284,1.078305 3.213122,1.774017 0.414251,0.374364 0.990642,1.075696 1.280869,1.558513 0.552753,0.919554 1.316101,2.843854 1.23027,3.101348 -0.02751,0.08254 -0.17903,-0.261523 -0.336699,-0.764592 z M 54.744304,48.615975 v -1.977319 l -4.101562,-0.0457 -4.101563,-0.0457 4.140625,0.004 4.140625,0.004 0.04433,1.677817 0.04433,1.677817 0.819429,-0.818442 c 0.450688,-0.450144 1.239833,-1.041978 1.753658,-1.31519 1.012719,-0.538483 3.030386,-1.156797 3.663238,-1.122599 l 0.393765,0.02128 -0.390625,0.06566 c -0.907717,0.152588 -2.726522,0.702203 -3.33175,1.006805 -1.052497,0.529705 -2.123828,1.411747 -2.616197,2.15395 l -0.458303,0.690845 z m 11.640625,-1.763711 -0.9375,-0.209885 0.821774,0.07924 c 0.451975,0.04358 0.979318,0.142592 1.171875,0.220016 0.486847,0.195753 0.05372,0.159101 -1.056149,-0.08938 z m -3.783358,-0.334435 c 0.497279,-0.0311 1.270716,-0.03081 1.71875,6.25e-4 0.448035,0.03146 0.04117,0.0569 -0.904142,0.05655 -0.945312,-3.13e-4 -1.311886,-0.02609 -0.814608,-0.05719 z M 33.754154,42.19649 c -2.034319,-0.854151 -3.240384,-2.545209 -3.354648,-4.703648 -0.07723,-1.4588 0.346087,-2.593311 1.39644,-3.742566 1.05113,-1.150105 2.14615,-1.676092 3.618469,-1.738119 l 1.126764,-0.04747 -1.138594,0.13138 c -1.474814,0.170178 -2.635389,0.74185 -3.533103,1.740323 -1.879072,2.08998 -1.792887,5.029364 0.206072,7.028324 1.492447,1.492447 3.482258,1.942768 5.40525,1.223286 1.232496,-0.461136 2.478313,-1.668072 2.969072,-2.876411 0.209419,-0.515625 0.381742,-0.832032 0.382944,-0.703125 0.0046,0.489579 -0.756036,1.824017 -1.416533,2.485261 -1.488606,1.49029 -3.805277,1.982403 -5.662133,1.202762 z m 7.112803,-4.792476 c -0.07822,-2.354829 -1.432142,-4.292118 -3.498428,-5.005824 -0.455042,-0.157175 -0.686725,-0.286523 -0.51485,-0.28744 0.171875,-9.38e-4 0.59375,0.129784 0.9375,0.290451 2.024085,0.946044 3.305302,2.989424 3.16238,5.043599 l -0.0577,0.829292 z"
         id="path1562" />
    </g>
  </g>
</svg>
