<?xml version="1.0" encoding="UTF-8" standalone="no"?>
<!-- Created with Inkscape (http://www.inkscape.org/) -->

<svg
   width="100mm"
   height="131.8428mm"
   viewBox="0 0 100 131.8428"
   version="1.1"
   id="svg5"
   inkscape:version="1.1.1 (3bf5ae0d25, 2021-09-20)"
   sodipodi:docname="projects.svg"
   xmlns:inkscape="http://www.inkscape.org/namespaces/inkscape"
   xmlns:sodipodi="http://sodipodi.sourceforge.net/DTD/sodipodi-0.dtd"
   xmlns="http://www.w3.org/2000/svg"
   xmlns:svg="http://www.w3.org/2000/svg">
  <sodipodi:namedview
     id="namedview7"
     pagecolor="#ffffff"
     bordercolor="#666666"
     borderopacity="1.0"
     inkscape:pageshadow="2"
     inkscape:pageopacity="0.0"
     inkscape:pagecheckerboard="0"
     inkscape:document-units="mm"
     showgrid="false"
     fit-margin-top="0"
     fit-margin-left="0"
     fit-margin-right="0"
     fit-margin-bottom="0"
     inkscape:zoom="0.72337262"
     inkscape:cx="396.75265"
     inkscape:cy="230.17183"
     inkscape:window-width="1920"
     inkscape:window-height="1001"
     inkscape:window-x="2391"
     inkscape:window-y="-9"
     inkscape:window-maximized="1"
     inkscape:current-layer="layer1" />
  <defs
     id="defs2">
    <clipPath
       id="clip0">
      <rect
         x="149"
         y="401"
         width="34"
         height="44"
         id="rect824" />
    </clipPath>
  </defs>
  <g
     inkscape:label="Capa 1"
     inkscape:groupmode="layer"
     id="layer1"
     transform="translate(4.3125629e-6,1.26e-5)">
    <g
       clip-path="url(#clip0)"
       transform="matrix(2.9964274,0,0,2.9964274,-447.27594,-1201.5674)"
       id="g835"
       style="fill:#01e1f9;fill-opacity:1">
      <path
         d="m 165.5,411.158 c 0.853,0 1.466,0.609 1.466,1.342 0,0.733 -0.613,1.346 -1.466,1.346 -0.733,0 -1.346,-0.613 -1.346,-1.346 0,-0.733 0.613,-1.342 1.346,-1.342 z m 0,-4.154 c -3.056,0 -5.5,2.443 -5.5,5.496 0,3.056 2.444,5.5 5.5,5.5 3.056,0 5.5,-2.444 5.5,-5.5 0,-3.053 -2.444,-5.496 -5.5,-5.496 z"
         fill="#5f7d95"
         fill-rule="evenodd"
         id="path829"
         style="fill:#01e1f9;fill-opacity:1" />
      <path
         d="m 166,419.991 4.94,10.556 c -1.261,0.472 -2.414,0.707 -3.675,0.822 v -1.172 c 0,-0.704 -0.576,-1.292 -1.265,-1.292 -0.802,0 -1.378,0.588 -1.378,1.292 v 1.172 c -1.261,-0.115 -2.527,-0.35 -3.675,-0.822 z m -6.661,-3.987 -4.593,9.851 c -0.689,-0.938 -1.265,-1.876 -1.725,-2.93 -0.251,-0.517 -0.689,-0.841 -1.174,-0.841 -0.178,0 -0.364,0.041 -0.547,0.137 -0.689,0.235 -1.035,0.939 -0.689,1.758 0.689,1.526 1.721,3.168 2.87,4.456 l -3.905,8.214 c -0.572,1.523 -0.343,3.165 0.689,4.337 l -0.802,1.996 c -0.346,0.588 0,1.527 0.572,1.761 0.161,0.097 0.336,0.138 0.514,0.138 0.471,0 0.959,-0.302 1.211,-0.726 l 0.802,-1.996 c 0.175,0.023 0.346,0.034 0.514,0.034 1.619,0 2.986,-0.987 3.507,-2.26 l 3.216,-6.803 c 1.494,0.585 3.102,1.054 4.823,1.173 v 1.408 c 0,0.703 0.576,1.288 1.265,1.288 0.802,0 1.378,-0.585 1.378,-1.288 v -1.408 c 1.724,-0.119 3.216,-0.353 4.823,-1.173 l 3.216,6.803 c 0.547,1.336 1.918,2.353 3.726,2.353 0.098,0 0.197,0 0.295,-0.008 l 0.802,1.996 c 0.252,0.424 0.744,0.726 1.214,0.726 0.179,0 0.354,-0.045 0.511,-0.141 0.576,-0.704 0.918,-1.408 0.576,-1.996 l -0.806,-2.111 c 0.919,-1.173 1.378,-2.696 0.689,-4.222 l -3.905,-8.095 c 1.149,-1.288 2.184,-2.93 2.873,-4.456 0.343,-0.819 0,-1.523 -0.689,-1.758 -0.186,-0.096 -0.379,-0.137 -0.569,-0.137 -0.51,0 -0.988,0.324 -1.155,0.841 -0.46,1.054 -1.036,1.992 -1.725,2.93 l -4.593,-9.851 c -1.262,2.345 -3.788,3.872 -6.661,3.872 -2.873,0 -5.283,-1.646 -6.548,-3.872 z"
         fill="#5f7d95"
         fill-rule="evenodd"
         id="path831"
         style="fill:#01e1f9;fill-opacity:1" />
      <path
         d="m 165.551,401 c -1.983,0 -3.551,1.705 -3.551,3.861 v 1.135 c 1.045,-0.793 2.195,-1.02 3.551,-1.02 1.254,0 2.404,0.227 3.449,1.02 v -1.135 C 169,402.705 167.432,401 165.551,401 Z"
         fill="#5f7d95"
         fill-rule="evenodd"
         id="path833"
         style="fill:#01e1f9;fill-opacity:1" />
    </g>
  </g>
</svg>
