<?xml version="1.0" encoding="UTF-8" standalone="no"?>
<!-- Created with Inkscape (http://www.inkscape.org/) -->

<svg
   width="100.00001mm"
   height="104.73219mm"
   viewBox="0 0 100.00001 104.73219"
   version="1.1"
   id="svg5"
   inkscape:version="1.1.1 (3bf5ae0d25, 2021-09-20)"
   sodipodi:docname="vscodeLogo.svg"
   xmlns:inkscape="http://www.inkscape.org/namespaces/inkscape"
   xmlns:sodipodi="http://sodipodi.sourceforge.net/DTD/sodipodi-0.dtd"
   xmlns="http://www.w3.org/2000/svg"
   xmlns:svg="http://www.w3.org/2000/svg">
  <sodipodi:namedview
     id="namedview7"
     pagecolor="#ffffff"
     bordercolor="#666666"
     borderopacity="1.0"
     inkscape:pageshadow="2"
     inkscape:pageopacity="0.0"
     inkscape:pagecheckerboard="0"
     inkscape:document-units="mm"
     showgrid="false"
     fit-margin-top="0"
     fit-margin-left="0"
     fit-margin-right="0"
     fit-margin-bottom="0"
     inkscape:zoom="0.72337262"
     inkscape:cx="-102.29859"
     inkscape:cy="32.486715"
     inkscape:window-width="1920"
     inkscape:window-height="1001"
     inkscape:window-x="-9"
     inkscape:window-y="-9"
     inkscape:window-maximized="1"
     inkscape:current-layer="layer1" />
  <defs
     id="defs2" />
  <g
     inkscape:label="Capa 1"
     inkscape:groupmode="layer"
     id="layer1"
     transform="translate(-131.99433,-81.468649)">
    <path
       style="fill:#01e1f9;fill-opacity:1;stroke-width:0.250734"
       d="m 202.22739,185.97383 c -0.61872,-0.17884 -4.46072,-4.15329 -16.52051,-17.09003 -8.64286,-9.27135 -16.23463,-17.39041 -16.8706,-18.04235 l -1.1563,-1.18535 -9.77865,8.15678 c -5.37827,4.48623 -10.11715,8.33978 -10.53086,8.56344 -1.63895,0.88602 -2.57592,0.62366 -8.5739,-2.4008 -4.20051,-2.11809 -5.70253,-2.99921 -6.12567,-3.59345 -0.76335,-1.07203 -0.90619,-3.06539 -0.29727,-4.1485 0.24982,-0.44436 4.88719,-5.55211 10.30527,-11.35055 5.41808,-5.79844 9.91057,-10.69772 9.98331,-10.88729 0.0812,-0.21167 -3.72011,-4.47236 -9.85105,-11.04146 -5.49083,-5.88324 -10.18771,-11.05723 -10.43753,-11.49775 -0.6093,-1.07442 -0.4661,-3.06947 0.29727,-4.14152 0.42314,-0.59424 1.92516,-1.47537 6.12567,-3.59346 5.94686,-2.99868 6.93137,-3.281 8.51495,-2.44185 0.3813,0.20205 4.87673,4.19957 9.98985,8.88338 5.11313,4.68381 9.38701,8.54962 9.49753,8.5907 0.11051,0.041 7.88388,-8.15742 17.27413,-18.2189 19.05482,-20.416878 18.10474,-19.550562 20.56026,-18.7474 1.3594,0.444639 24.78966,14.373632 25.94931,15.426535 1.49231,1.354948 1.41084,-0.760365 1.41084,36.634535 0,37.53916 0.0875,35.35467 -1.46817,36.66367 -1.00012,0.84155 -23.37602,14.2859 -25.15448,15.11384 -1.42646,0.66407 -1.87684,0.7139 -3.1434,0.34778 z m 13.95922,-16.01949 7.76804,-4.63859 5e-4,-31.46721 5e-4,-31.46722 -7.83496,-4.701274 c -4.30941,-2.585702 -7.91674,-4.701277 -8.01646,-4.701277 -0.0997,0 -0.18133,18.400791 -0.18133,40.890661 0,26.83083 0.0852,40.86192 0.24784,40.80708 0.13631,-0.046 3.74345,-2.17094 8.01587,-4.72217 z m -16.29025,-3.8237 -0.003,-6.08032 -27.35615,-25.07348 c -15.04588,-13.79041 -27.4449,-25.10743 -27.55337,-25.14892 -0.10848,-0.0415 -0.71531,0.16808 -1.3485,0.46572 l -1.15126,0.54115 1.56564,1.68946 c 7.18328,7.75137 55.71293,59.6867 55.7727,59.6867 0.0424,0 0.0756,-2.73614 0.074,-6.08031 z M 153.70567,150.8985 c 4.56706,-3.79236 8.31027,-6.98862 8.31826,-7.10277 0.0171,-0.24378 -3.29285,-3.91841 -3.53545,-3.92505 -0.0908,-0.003 -3.18446,3.23937 -6.87483,7.20411 -3.69039,3.96475 -7.26308,7.78461 -7.93933,8.4886 l -1.22955,1.27997 1.0838,0.53027 c 0.5961,0.29166 1.26146,0.50549 1.47859,0.47517 0.21712,-0.0303 4.13146,-3.15794 8.69851,-6.9503 z m 46.19372,-14.92409 v -13.16895 l -7.54117,6.29509 -7.54119,6.29509 1.46087,1.3275 c 0.80347,0.73012 4.1688,3.81899 7.47849,6.86414 3.3097,3.04515 6.04585,5.54101 6.08033,5.54635 0.0345,0.006 0.0627,-5.91631 0.0627,-13.15922 z m -10.41483,-14.91334 10.40229,-8.65036 0.007,-8.52129 0.007,-8.521296 -0.9726,0.999253 c -0.53493,0.549587 -6.63336,7.071453 -13.55208,14.493023 l -12.57946,13.49377 1.82939,1.67568 c 1.00617,0.92163 2.3375,2.15242 2.95853,2.73509 0.62103,0.58267 1.21238,1.034 1.31412,1.00293 0.10173,-0.0311 4.86601,-3.94912 10.58728,-8.7068 z"
       id="path1620" />
  </g>
</svg>
