<?xml version="1.0" encoding="UTF-8" standalone="no"?>
<!-- Created with Inkscape (http://www.inkscape.org/) -->

<svg
   width="100mm"
   height="116.57124mm"
   viewBox="0 0 100 116.57124"
   version="1.1"
   id="svg5"
   inkscape:version="1.1.1 (3bf5ae0d25, 2021-09-20)"
   sodipodi:docname="gsapLogo.svg"
   xmlns:inkscape="http://www.inkscape.org/namespaces/inkscape"
   xmlns:sodipodi="http://sodipodi.sourceforge.net/DTD/sodipodi-0.dtd"
   xmlns="http://www.w3.org/2000/svg"
   xmlns:svg="http://www.w3.org/2000/svg">
  <sodipodi:namedview
     id="namedview7"
     pagecolor="#ffffff"
     bordercolor="#666666"
     borderopacity="1.0"
     inkscape:pageshadow="2"
     inkscape:pageopacity="0.0"
     inkscape:pagecheckerboard="0"
     inkscape:document-units="mm"
     showgrid="false"
     fit-margin-top="0"
     fit-margin-left="0"
     fit-margin-right="0"
     fit-margin-bottom="0"
     inkscape:zoom="0.72337262"
     inkscape:cx="396.75265"
     inkscape:cy="561.95105"
     inkscape:window-width="2400"
     inkscape:window-height="1271"
     inkscape:window-x="-9"
     inkscape:window-y="-9"
     inkscape:window-maximized="1"
     inkscape:current-layer="layer1" />
  <defs
     id="defs2" />
  <g
     inkscape:label="Capa 1"
     inkscape:groupmode="layer"
     id="layer1">
    <path
       style="fill:#01E1F9;stroke-width:0.496483"
       d="m 55.084618,115.91433 c -0.946905,-0.42524 -1.893023,-1.04279 -2.102437,-1.3723 -0.634773,-0.99875 -0.441665,-4.03661 0.326281,-5.13301 1.738476,-2.48203 2.315548,-5.4738 2.716681,-14.084237 0.222606,-4.778642 0.680671,-9.419757 1.017911,-10.313577 0.590638,-1.565447 0.534494,-1.711268 -1.529156,-3.971853 -4.051715,-4.438401 -7.422234,-6.066446 -12.57512,-6.074121 -3.572146,-0.0056 -8.621019,-0.897892 -10.978881,-1.940873 -4.934483,-2.182749 -7.270296,-5.72247 -8.4223,-12.763206 -0.94045,-5.747765 -1.447417,-7.401218 -2.978937,-9.71549 l -1.266956,-1.914527 -2.343244,1.342841 c -4.426259,2.536559 -9.5984538,6.29258 -12.9932167,9.435614 -1.8696603,1.731008 -3.56426466,3.147294 -3.76579775,3.147294 -0.20153308,0 -0.25003988,-1.449875 -0.10789714,-3.22194 C 0.69629938,51.676406 7.4212746,42.28138 16.34281,36.617362 c 9.255528,-5.87604 17.460083,-9.590216 29.292514,-13.260595 3.686386,-1.143485 7.528744,-2.509931 8.538567,-3.036507 1.009842,-0.526575 2.309168,-0.957413 2.887421,-0.957413 0.578254,0 1.539364,-0.262125 2.135819,-0.582476 0.596437,-0.32037 1.866414,-0.645488 2.822139,-0.722517 3.165721,-0.255087 5.70044,-0.791271 6.398019,-1.353368 0.540517,-0.435548 0.625203,-1.593368 0.394021,-5.387876 C 68.649371,8.658413 68.651247,5.3488213 68.815063,3.9619697 69.188763,0.80865057 70.466809,0 75.077113,0 c 6.776672,0 7.66428,1.3098262 6.768209,9.9878127 -0.292767,2.8352103 -0.391395,6.1044563 -0.219191,7.2649783 0.272633,1.837404 0.473772,2.110056 1.556515,2.110056 1.439516,0 3.241436,0.849066 3.79781,1.789553 0.212004,0.358388 0.692099,0.53395 1.066868,0.390156 0.37475,-0.143737 0.828857,-0.02289 1.009129,0.268861 0.180329,0.291679 0.721128,0.530329 1.201899,0.530329 0.480771,0 1.340946,0.502688 1.911487,1.117082 0.57056,0.614395 1.639249,1.535855 2.374844,2.047681 1.883547,1.310547 2.898418,3.999438 2.528415,6.698949 -0.187647,1.368586 -0.08388,2.459116 0.275072,2.891587 0.316917,0.381881 0.598745,1.780509 0.626254,3.108057 0.03434,1.66034 0.358349,2.754435 1.037801,3.50523 C 99.758179,42.534592 100,43.503564 100,45.668187 c 0,2.466041 -0.249608,3.238847 -1.787133,5.533303 -0.982934,1.466819 -2.387398,3.72596 -3.121061,5.020294 -1.668202,2.943134 -3.161592,3.453422 -6.29834,2.152145 -0.704672,-0.292336 -0.71336,0.05142 -0.0897,3.543173 0.920785,5.154769 0.567539,11.328306 -0.811161,14.176321 -0.577221,1.192385 -1.066493,3.04694 -1.087265,4.121258 -0.02083,1.074317 -0.320596,2.735258 -0.666279,3.690983 -0.530817,1.467569 -0.514585,1.821416 0.104332,2.276254 0.644887,0.473865 0.635336,1.070377 -0.07937,4.964844 -0.446807,2.434441 -0.811931,6.349418 -0.811368,8.699925 l 9.76e-4,4.273663 2.965445,1.83037 c 1.630973,1.00669 4.663183,2.60405 6.738204,3.54966 4.062374,1.85129 4.600659,2.83907 2.207557,4.05093 -1.425312,0.72179 -18.237956,0.3871 -21.490558,-0.4278 -2.677219,-0.67074 -3.197827,-2.06061 -2.04526,-5.46025 1.259769,-3.71592 1.123237,-7.4096 -0.434009,-11.741515 -0.716344,-1.992738 -1.454379,-4.966008 -1.640056,-6.607264 -0.313502,-2.770911 -0.261861,-3.003931 0.722742,-3.261402 0.583208,-0.152557 1.060357,-0.549131 1.060357,-0.88136 0,-0.332248 0.823189,-1.427244 1.829279,-2.433352 l 1.829297,-1.829279 -0.652599,-2.597694 c -0.358913,-1.428746 -0.753554,-2.773519 -0.87697,-2.988432 -0.123471,-0.214893 -0.876387,0.50935 -1.673306,1.60945 -0.7969,1.100082 -1.901842,2.281284 -2.45542,2.624903 -1.450156,0.900087 -2.819643,4.156385 -3.122299,7.42398 -0.16907,1.825413 -1.005094,4.464539 -2.3591,7.447248 -2.07551,4.57208 -2.097727,4.681497 -2.148748,10.577657 -0.02833,3.27679 0.123847,6.85146 0.338121,7.94374 0.228855,1.16634 0.189674,2.2859 -0.09495,2.71278 -0.7161,1.07396 -6.758508,1.24352 -8.967153,0.25161 z m 7.829729,-1.35687 c 0.370153,-0.446 0.235497,-1.46962 -0.46711,-3.55079 -0.771849,-2.28634 -0.851111,-3.00823 -0.363398,-3.30967 0.486964,-0.30095 0.496196,-0.66557 0.04203,-1.66227 -0.495126,-1.0867 -0.903408,-1.27677 -2.742651,-1.27677 -1.833069,0 -2.26781,0.20065 -2.86541,1.32246 -0.489816,0.91943 -0.536183,1.37902 -0.152182,1.50806 0.303782,0.10208 -0.198906,0.93685 -1.117083,1.85505 -2.009326,2.0093 -2.110993,3.33526 -0.361277,4.71157 1.006146,0.79142 2.023756,1.029 4.40757,1.029 1.889795,0 3.302366,-0.24456 3.619471,-0.62664 z m 30.783691,-2.67381 c 0.125161,-0.87751 -0.64804,-1.52803 -4.366738,-3.6742 -2.485312,-1.43436 -4.75725,-3.05361 -5.048779,-3.59831 -0.312132,-0.58322 -0.448008,-2.86582 -0.330503,-5.552309 l 0.199525,-4.561947 -2.150568,0.458666 c -1.182796,0.252273 -3.37262,0.382706 -4.866292,0.28984 -2.25931,-0.140548 -2.664271,-0.04372 -2.40954,0.57587 1.210681,2.944598 1.693253,7.99827 1.025417,10.73834 -0.361822,1.48449 -0.300367,1.56807 1.385305,1.88431 1.616656,0.30328 1.763921,0.47411 1.763921,2.04611 v 1.71519 l 3.103028,0.0435 c 1.706651,0.024 4.220092,0.22253 5.585431,0.44136 4.140342,0.66358 5.933986,0.42685 6.109793,-0.80643 z M 62.699397,103.1444 c 0.164567,-0.6144 0.302431,-1.96756 0.306165,-3.00701 0.0038,-1.039453 0.810599,-3.831756 1.793044,-6.205099 1.822017,-4.401528 2.886164,-10.02173 1.76653,-9.329743 -0.914011,0.564893 -0.680165,0.0698 0.915549,-1.938096 0.819193,-1.030821 1.48945,-2.133285 1.48945,-2.449921 0,-0.316636 0.912003,-1.458845 2.026702,-2.538266 2.922811,-2.830321 4.220579,-5.313306 5.703705,-10.912717 1.244871,-4.699819 2.522054,-8.060636 1.976,-5.199636 -0.130227,0.682661 -0.474597,2.916844 -0.765094,4.964852 -0.290496,2.047982 -0.762222,4.447914 -1.048291,5.333159 -0.417496,1.291932 -0.329977,2.124729 0.44343,4.22011 0.529971,1.43582 1.116782,3.455973 1.304054,4.489252 0.321158,1.772122 0.25368,1.908954 -1.189721,2.41213 -0.841598,0.293386 -1.852847,1.157352 -2.247188,1.919931 l -0.716981,1.386506 3.3386,0.298247 c 1.836241,0.164004 4.115704,0.122158 5.065499,-0.09307 1.457699,-0.330391 1.819352,-0.698123 2.320126,-2.359176 0.326299,-1.082292 0.610435,-2.846776 0.631414,-3.921094 0.02102,-1.074318 0.540855,-2.973364 1.15525,-4.22011 0.959796,-1.947647 1.108638,-3.000798 1.057035,-7.47988 -0.03715,-3.228497 -0.462456,-7.086016 -1.117101,-10.132881 -0.58135,-2.705891 -1.057017,-5.55447 -1.057017,-6.330166 v -1.410356 l -4.592477,-0.0075 c -3.87332,-0.0056 -8.257302,-0.656727 -11.854049,-1.759023 -1.226424,-0.375876 -1.510409,1.536868 -0.380041,2.559826 1.506337,1.363238 1.114361,2.473378 -1.744857,4.941858 -2.399895,2.071925 -2.773388,2.666091 -3.528912,5.614048 -1.127384,4.398776 -1.516057,11.334817 -0.795549,14.196268 0.563768,2.238875 0.541813,2.316636 -1.375322,4.872841 -1.071541,1.428727 -2.305846,3.815487 -2.742895,5.303923 -0.911497,3.104153 -2.036911,16.363663 -1.436853,16.928653 0.498635,0.46947 1.984782,0.8363 3.69301,0.91155 0.962442,0.0424 1.386412,-0.23717 1.606785,-1.0595 z m 21.77824,-10.50042 c 0.666748,-0.998677 0.392783,-1.410318 -0.737135,-1.107512 -0.614394,0.164567 -3.183697,0.302431 -5.70956,0.306146 -3.653472,0.0056 -4.592458,0.15237 -4.592458,0.718539 0,0.395223 0.607151,0.803881 1.365321,0.918946 2.296032,0.348461 9.28634,-0.255726 9.673832,-0.836119 z m -0.09063,-3.2909 c 0.531848,-0.284623 0.967021,-0.788925 0.967059,-1.120648 3.7e-5,-0.442265 -1.721307,-0.603135 -6.4536,-0.603135 -3.976057,0 -6.450992,0.190593 -6.446732,0.496477 0.01126,0.737472 0.639483,1.547432 1.481155,1.906608 1.08522,0.463094 9.31719,-0.07187 10.452118,-0.679302 z M 46.650421,71.98136 c 1.389058,-0.547517 3.795539,-1.804716 5.347719,-2.793767 3.465169,-2.208025 10.345703,-7.948949 10.731356,-8.953931 0.505033,-1.316119 0.301417,-2.024431 -0.653763,-2.274227 -0.904929,-0.236642 -1.650601,-1.310134 -3.271741,-4.710114 -0.608165,-1.275513 -1.778014,-2.12501 -5.603314,-4.068904 -6.292937,-3.197865 -7.457682,-4.022443 -9.067526,-6.419467 l -1.339594,-1.994595 -5.199835,5.309833 c -5.64621,5.765648 -8.490323,9.384912 -10.515655,13.381741 -1.516996,2.993629 -1.580684,3.789854 -0.511151,6.389593 2.679827,6.513824 11.942411,9.342755 20.083504,6.133838 z M 8.1314817,53.639909 C 14.178788,48.98594 26.389872,42.266538 39.799534,36.213902 c 4.76455,-2.15053 4.850455,-2.219753 5.615999,-4.524586 0.932682,-2.808047 2.46499,-4.879221 3.609751,-4.879221 0.51541,0 1.037689,-0.646182 1.363425,-1.686855 l 0.527964,-1.686873 -2.268298,0.695533 c -1.247572,0.382538 -3.146862,0.937786 -4.220635,1.233893 -3.895575,1.074205 -13.33406,4.952422 -18.539168,7.617613 C 12.100895,40.043162 5.0722507,47.054562 2.2488923,56.565085 1.8085781,58.048229 1.448333,59.29856 1.448333,59.343595 c 0,0.04504 0.9408068,-0.786692 2.0906713,-1.848231 1.1498645,-1.061557 3.2164793,-2.796506 4.5924774,-3.855455 z M 93.441712,57.21076 c 0.436918,-0.482779 1.197639,-1.770282 1.690513,-2.861132 0.492893,-1.090831 1.373615,-2.650742 1.957198,-3.466444 1.413697,-1.976056 2.371804,-5.312536 1.977107,-6.885113 -0.44615,-1.77762 -2.04997,-2.560015 -3.72155,-1.815506 -1.213796,0.540612 -1.192611,0.478351 0.311044,-0.913898 1.844384,-1.707758 1.948472,-2.498578 0.69405,-5.273636 -0.658191,-1.456105 -0.784684,-2.383289 -0.47409,-3.475377 0.232964,-0.819192 0.298228,-2.206862 0.145051,-3.0837 -0.349493,-1.999981 -2.897498,-4.611786 -4.499142,-4.611786 -1.486428,0 -1.485828,0.03565 0.03809,2.281396 1.601681,2.360226 1.729469,5.845473 0.248238,6.770517 -0.685269,0.427948 -0.993911,1.160054 -0.996031,2.362497 -0.0015,0.958314 -0.336808,2.382331 -0.744715,3.164463 -1.094978,2.099547 -0.918496,2.787499 0.803505,3.131888 1.24275,0.248558 1.388514,0.396705 0.744715,0.756988 -1.092106,0.611167 -1.011268,3.006802 0.166819,4.943997 1.167653,1.920043 0.949419,2.405374 -1.081561,2.405374 -2.168095,0 -3.361062,1.248079 -3.361062,3.516302 0,1.43203 0.307967,2.115178 1.308164,2.901945 1.602432,1.260464 3.729056,1.327566 4.793635,0.151244 z m -26.323167,-2.118743 2.003546,-2.003528 -1.430622,-1.49324 c -0.813582,-0.849198 -2.354053,-1.725773 -3.571601,-2.032351 -2.395579,-0.60321 -4.09283,-2.627323 -6.217127,-7.414372 -0.653632,-1.472955 -1.830311,-3.437846 -2.614845,-4.366437 -1.195932,-1.415536 -1.253952,-1.596015 -0.359044,-1.117083 2.932513,1.569425 5.93393,-0.729141 7.360686,-5.637015 0.436242,-1.500653 0.944898,-2.724375 1.130312,-2.719421 0.185395,0.0056 1.330212,0.68191 2.543989,1.504292 2.982427,2.020736 3.777545,2.150287 7.664619,1.24883 4.274959,-0.991434 10.850417,-0.974696 13.463217,0.03434 3.322894,1.28317 3.949053,1.166528 4.13368,-0.769972 0.272501,-2.85813 -1.248436,-5.406078 -4.232252,-7.090043 -2.833453,-1.599092 -3.38219,-2.147772 -1.390878,-1.390653 1.55749,0.592139 1.642795,-0.158938 0.137733,-1.213064 -1.276076,-0.893802 -3.492527,-1.005208 -4.909695,-0.246775 -0.883274,0.472721 -0.923224,0.430369 -0.393759,-0.417459 0.369721,-0.592027 0.45891,-1.638441 0.239382,-2.808647 -0.345478,-1.841532 -0.362704,-1.853504 -1.363426,-0.947881 -1.553569,1.405966 -6.395973,1.284633 -7.97615,-0.199863 -1.473312,-1.384104 -1.869811,-1.403507 -1.869811,-0.09138 0,1.523489 0.850136,2.836569 2.370772,3.661785 1.851196,1.004607 0.449153,0.973945 -1.497574,-0.03265 -2.535471,-1.311128 -4.382182,-1.692709 -5.443477,-1.12472 -0.545359,0.291867 -0.849366,0.827356 -0.696246,1.226387 0.217558,0.566976 0.02777,0.548456 -0.950846,-0.09289 -0.84535,-0.553897 -1.645084,-0.685231 -2.591576,-0.425621 l -1.368962,0.375482 1.48945,0.392145 c 4.964582,1.307056 5.703199,1.382096 9.668953,0.982314 2.299861,-0.231857 4.639877,-0.23591 5.200042,-0.0094 1.186549,0.480602 1.261101,0.47 -5.187563,0.738429 -3.232561,0.134543 -5.542404,-0.03809 -7.341171,-0.548906 -4.484261,-1.273298 -9.221152,0.297177 -10.775378,3.572484 l -0.876274,1.846617 1.304429,0.950208 c 0.71745,0.522616 1.304448,1.189627 1.304448,1.482244 0,0.292617 -0.408583,0.162315 -0.907949,-0.289652 -2.020022,-1.828097 -4.263251,-0.676093 -5.267332,2.705009 -0.41106,1.384161 -1.227945,3.294259 -1.815337,4.244655 -0.802811,1.298969 -1.002298,2.217539 -0.803486,3.699764 0.475798,3.547302 1.569143,4.555549 10.780031,9.941061 2.846664,1.664412 3.762551,2.468743 3.88895,3.415179 0.208533,1.561618 2.94653,4.465158 4.210578,4.465158 0.524699,0 1.855587,-0.901588 2.957526,-2.003546 z m 9.465149,-33.257801 c 0.784685,-0.235347 1.883246,-0.230374 2.482404,0.01126 0.821182,0.331122 0.489009,0.430744 -1.407579,0.422188 -2.144976,-0.0094 -2.291079,-0.06868 -1.074825,-0.43339 z m 4.208871,-0.328101 c 0.358387,-0.143362 0.786617,-0.125723 0.951596,0.03922 0.164942,0.164941 -0.128351,0.282334 -0.651642,0.260773 -0.578385,-0.02383 -0.696021,-0.141486 -0.299954,-0.299954 z m 1.985926,-0.496495 c 0.358406,-0.143363 0.786617,-0.125724 0.951597,0.03922 0.164942,0.164942 -0.128351,0.282315 -0.651643,0.260773 -0.578366,-0.02383 -0.696002,-0.141486 -0.299954,-0.299973 z m 0.02027,28.81621 c 2.937823,-0.307047 3.051744,-0.371016 3.051744,-1.713257 0,-2.217051 1.032228,-6.492011 2.056369,-8.516443 0.517606,-1.023127 1.075312,-2.839496 1.239354,-4.036385 L 89.444512,33.383582 86.85832,32.52459 c -2.576883,-0.855916 -7.471529,-0.842893 -15.216217,0.04053 -1.995721,0.227635 -2.974076,0.06887 -4.558794,-0.739536 -1.109765,-0.566169 -2.157793,-1.255998 -2.328965,-1.532965 -0.606288,-0.981001 -1.245583,-0.483642 -1.245583,0.969029 0,0.809941 -0.376664,2.262443 -0.837,3.227794 -0.831709,1.744106 -0.828125,1.764447 0.567426,3.221077 1.856244,1.937514 4.470976,3.149827 5.86784,2.72064 l 1.104248,-0.339303 -1.117083,1.210756 c -1.131737,1.226631 -1.335072,2.269724 -0.818085,4.19656 0.309956,1.155194 5.714664,3.919087 8.389443,4.290234 2.593341,0.359851 3.015415,0.362366 6.133211,0.0364 z m 8.683074,-0.01689 c 0.184457,-0.184457 -0.157436,-0.860306 -0.760009,-1.501703 -0.71897,-0.7653 -1.079084,-1.747633 -1.047615,-2.857716 0.02852,-1.00943 -0.225759,-1.796572 -0.630776,-1.952 -0.963925,-0.36989 -1.270503,0.350956 -1.574342,3.701772 l -0.267059,2.945161 h 1.972134 c 1.084695,0 2.123134,-0.151056 2.307686,-0.335532 z M 65.810156,46.066243 c -0.223169,-2.135068 -0.58043,-3.229615 -1.160054,-3.553981 -0.460674,-0.257809 -1.77244,-1.330457 -2.915042,-2.383664 -1.317603,-1.214528 -2.363079,-1.805297 -2.858411,-1.61523 -0.689341,0.264527 -0.645694,0.672397 0.372048,3.476221 0.634153,1.747108 1.739864,3.945939 2.457108,4.886295 1.133783,1.486466 1.847406,1.882008 3.983731,2.207989 0.248652,0.0379 0.301587,-1.286247 0.120658,-3.01763 z M 90.567088,23.476805 c -0.546128,-0.131353 -1.20522,-0.440558 -1.464624,-0.687127 -0.259422,-0.246549 -0.817954,-0.441177 -1.241211,-0.432508 -0.610998,0.01314 -0.570991,0.166068 0.194196,0.744735 0.530047,0.400908 1.535423,0.70302 2.234147,0.671345 1.024741,-0.04654 1.078408,-0.103769 0.277492,-0.296445 z M 74.793409,21.048463 c -0.164942,-0.164942 -0.593209,-0.182581 -0.951597,-0.03922 -0.396066,0.158562 -0.27843,0.276142 0.299954,0.299954 0.523367,0.02158 0.816604,-0.0957 0.651643,-0.260754 z M 78.60291,15.616527 C 79.732621,14.486816 80.418621,11.416851 80.5347,6.9714929 80.603566,4.335746 80.429617,2.8281641 80.007712,2.4031376 79.184447,1.5737933 72.87922,1.2220092 71.553586,1.9314638 70.213129,2.648854 69.708095,6.5747823 70.405261,10.857875 c 0.765394,4.702339 1.472711,5.525716 4.746817,5.525716 1.758329,0 2.948256,-0.264508 3.450832,-0.767064 z"
       id="path21" />
  </g>
</svg>
