<?xml version="1.0" encoding="UTF-8" standalone="no"?>
<!-- Created with Inkscape (http://www.inkscape.org/) -->

<svg
   width="100mm"
   height="114.45152mm"
   viewBox="0 0 100 114.45152"
   version="1.1"
   id="svg292"
   inkscape:version="1.1.1 (3bf5ae0d25, 2021-09-20)"
   sodipodi:docname="htmlLogo.svg"
   xmlns:inkscape="http://www.inkscape.org/namespaces/inkscape"
   xmlns:sodipodi="http://sodipodi.sourceforge.net/DTD/sodipodi-0.dtd"
   xmlns="http://www.w3.org/2000/svg"
   xmlns:svg="http://www.w3.org/2000/svg">
  <sodipodi:namedview
     id="namedview294"
     pagecolor="#ffffff"
     bordercolor="#666666"
     borderopacity="1.0"
     inkscape:pageshadow="2"
     inkscape:pageopacity="0.0"
     inkscape:pagecheckerboard="0"
     inkscape:document-units="mm"
     showgrid="false"
     fit-margin-top="0"
     fit-margin-left="0"
     fit-margin-right="0"
     fit-margin-bottom="0"
     inkscape:zoom="0.72337262"
     inkscape:cx="-69.12067"
     inkscape:cy="561.95105"
     inkscape:window-width="2400"
     inkscape:window-height="1271"
     inkscape:window-x="-9"
     inkscape:window-y="-9"
     inkscape:window-maximized="1"
     inkscape:current-layer="layer1" />
  <defs
     id="defs289" />
  <g
     inkscape:label="Capa 1"
     inkscape:groupmode="layer"
     id="layer1">
    <path
       style="fill:#01E1F9;stroke-width:0.224215"
       d="M 29.285799,108.18159 C 17.870385,104.55532 9.2645122,101.70631 8.8292897,101.40936 8.4160844,101.12744 7.9265258,100.51954 7.7413881,100.05846 7.4972825,99.450547 6.3872515,86.202242 3.7023615,51.852226 1.6660337,25.799867 -2.8070688e-5,4.0199626 0,3.4524377 5.6142367e-5,2.2147107 0.64832824,1.1338801 1.7945241,0.46055278 L 2.5785196,0 H 49.999996 97.42148 l 0.783996,0.46055278 C 99.351662,1.1338801 99.999944,2.2147107 100,3.4524377 c 3e-5,0.5675249 -1.666043,22.3474293 -3.702361,48.3997883 -2.68489,34.350016 -3.794921,47.598321 -4.039026,48.206234 -0.185138,0.46108 -0.674659,1.06895 -1.087818,1.35084 -1.083307,0.73912 -40.026802,13.05544 -41.238684,13.04221 -0.589145,-0.007 -8.3102,-2.35119 -20.646312,-6.26992 z M 63.63176,89.664082 c 7.239067,-2.293449 13.232248,-4.235721 13.318192,-4.316135 0.131541,-0.1231 3.095101,-36.600752 3.094923,-38.094625 l -5.6e-5,-0.504484 H 57.062777 c -12.640127,0 -22.982043,-0.04244 -22.982043,-0.09432 0,-0.05188 -0.302689,-2.784092 -0.672647,-6.071597 C 33.03813,37.295418 32.73544,34.310959 32.73544,33.950789 v -0.654854 h 24.215221 c 13.318379,0 24.215689,-0.02523 24.216241,-0.05606 4.49e-4,-0.03083 0.201896,-2.578472 0.447415,-5.661429 0.245527,-3.082958 0.446862,-5.882842 0.447414,-6.221968 l 9.36e-4,-0.616592 H 49.999996 17.93725 v 0.561751 c 0,1.245624 2.927699,37.842724 3.042163,38.027927 0.0707,0.114408 9.725724,0.199529 22.633126,0.199529 h 22.509813 l -0.108495,1.065014 C 65.8827,61.881521 65.022408,73.984013 65.022408,74.5417 c 0,0.32829 -1.230175,0.727451 -7.311191,2.372328 -7.04022,1.904329 -7.349769,1.967489 -8.352007,1.704089 -0.572453,-0.150442 -3.891158,-1.040536 -7.374902,-1.977987 L 35.650232,74.935667 V 70.035076 65.134465 H 28.45922 21.268206 l 0.130179,1.17713 c 0.0716,0.647421 0.438507,5.160661 0.815352,10.02941 0.376842,4.86875 0.733968,8.904623 0.793609,8.968607 0.22206,0.23821 26.232394,8.477308 26.835181,8.500382 0.345012,0.01319 6.550157,-1.852454 13.789233,-4.145912 z"
       id="path308" />
  </g>
</svg>
