<?xml version="1.0" encoding="UTF-8" standalone="no"?>
<!-- Created with Inkscape (http://www.inkscape.org/) -->

<svg
   width="100mm"
   height="113.41853mm"
   viewBox="0 0 100 113.41853"
   version="1.1"
   id="svg5"
   inkscape:version="1.1.1 (3bf5ae0d25, 2021-09-20)"
   sodipodi:docname="jsLogo.svg"
   xmlns:inkscape="http://www.inkscape.org/namespaces/inkscape"
   xmlns:sodipodi="http://sodipodi.sourceforge.net/DTD/sodipodi-0.dtd"
   xmlns="http://www.w3.org/2000/svg"
   xmlns:svg="http://www.w3.org/2000/svg">
  <sodipodi:namedview
     id="namedview7"
     pagecolor="#ffffff"
     bordercolor="#666666"
     borderopacity="1.0"
     inkscape:pageshadow="2"
     inkscape:pageopacity="0.0"
     inkscape:pagecheckerboard="0"
     inkscape:document-units="mm"
     showgrid="false"
     fit-margin-top="0"
     fit-margin-left="0"
     fit-margin-right="0"
     fit-margin-bottom="0"
     inkscape:zoom="0.36168631"
     inkscape:cx="22.118614"
     inkscape:cy="734.06152"
     inkscape:window-width="2400"
     inkscape:window-height="1271"
     inkscape:window-x="-9"
     inkscape:window-y="-9"
     inkscape:window-maximized="1"
     inkscape:current-layer="layer1" />
  <defs
     id="defs2" />
  <g
     inkscape:label="Capa 1"
     inkscape:groupmode="layer"
     id="layer1">
    <path
       style="fill:#000000;stroke-width:0.264583"
       id="path365"
       d="" />
    <path
       style="fill:#000000;stroke-width:0.264583"
       id="path306"
       d="" />
    <path
       style="fill:#000000;stroke-width:0.264583"
       id="path133"
       d="" />
    <path
       style="fill:#000000;stroke-width:0.264583"
       id="path41"
       d="" />
    <path
       style="fill:#000000;stroke-width:0.264583"
       id="path21"
       d="" />
    <path
       style="fill:#01E1F9;fill-opacity:1;stroke-width:0.108902"
       d="M 48.788077,113.14684 C 48.219067,112.97882 42.068826,111.2659 35.120883,109.34036 16.041945,104.05288 9.0948623,102.12385 9.0783807,102.10902 9.0701693,102.10166 8.8108486,99.228744 8.502116,95.724823 8.1933838,92.220901 7.9215805,89.182539 7.8981092,88.9729 7.8746357,88.763265 7.8255383,88.248701 7.7889995,87.829431 7.7524619,87.410157 7.6997334,86.822086 7.6718274,86.522608 7.6439211,86.223125 7.4492369,84.017861 7.2391943,81.622019 7.0291518,79.226178 6.8346508,77.02091 6.8069696,76.721431 6.7792896,76.421948 6.7055111,75.613352 6.6430198,74.924547 6.5805285,74.235742 6.5065105,73.427145 6.4785358,73.127667 6.4505636,72.828184 6.2566186,70.647423 6.0475524,68.281529 5.6465128,63.743167 4.9303249,55.706297 4.0241521,45.575468 3.7241305,42.22129 3.3836682,38.39883 3.2675692,37.081116 2.7743649,31.483301 2.1720065,24.735366 2.1204679,24.230686 2.089882,23.931206 1.8447973,21.186876 1.5758304,18.132177 1.3068634,15.077477 1.0622866,12.333147 1.0323255,12.033667 0.88054015,10.516447 0,0.46502625 0,0.24960123 V 0 H 50.000002 100 L 99.92629,0.95289208 C 99.885753,1.4769831 99.808397,2.3713401 99.754391,2.9403529 99.700385,3.5093657 99.62759,4.3424659 99.592629,4.7916864 99.557684,5.2409068 99.506675,5.7799718 99.479312,5.9896081 99.451941,6.199244 99.305885,7.8164383 99.154726,9.5833727 99.003567,11.350307 98.85654,13.016507 98.828,13.286039 c -0.02852,0.269533 -0.151345,1.641697 -0.272894,3.049255 -0.121553,1.407558 -0.244065,2.779723 -0.272256,3.049255 -0.02819,0.269533 -0.150702,1.641697 -0.272255,3.049255 -0.121549,1.407558 -0.244156,2.779723 -0.272453,3.049255 -0.02828,0.269532 -0.247387,2.719827 -0.486863,5.445098 -0.439031,4.996167 -0.516239,5.857893 -0.604971,6.751921 -0.02675,0.269534 -0.244576,2.719826 -0.484051,5.445098 -0.43715,4.974808 -0.515136,5.845403 -0.604807,6.751923 -0.02667,0.269531 -0.196846,2.180761 -0.378188,4.247176 -0.181342,2.066416 -0.403362,4.565712 -0.493379,5.554 -0.09001,0.988284 -0.186923,2.066415 -0.215356,2.395842 -0.02844,0.329427 -0.09836,1.113521 -0.155407,1.74243 -0.05704,0.628909 -0.13239,1.511017 -0.167434,1.960235 -0.03503,0.449222 -0.08611,0.988288 -0.113473,1.197923 -0.02737,0.209635 -0.173427,1.826832 -0.324586,3.593765 -0.151156,1.766932 -0.297796,3.433134 -0.325862,3.702665 -0.02807,0.269535 -0.150024,1.617197 -0.271013,2.994807 -0.120989,1.377606 -0.243114,2.749771 -0.271387,3.049254 -0.02828,0.299479 -0.150785,1.671643 -0.272256,3.049253 -0.121466,1.377611 -0.243464,2.749775 -0.271099,3.049258 -0.02762,0.299479 -0.101664,1.132578 -0.164507,1.851331 -0.06284,0.718753 -0.13749,1.551852 -0.165882,1.851334 -0.07176,0.756884 -0.655795,7.285441 -0.882092,9.860389 l -0.187051,2.128349 -1.697878,0.46717 c -0.93383,0.25694 -5.912383,1.63579 -11.063445,3.06411 -9.821575,2.72338 -16.20387,4.49234 -20.037959,5.55385 -3.813336,1.05575 -7.940062,2.18809 -8.113197,2.22617 -0.08984,0.0198 -0.628909,-0.10154 -1.197922,-0.26957 z M 46.61004,55.01364 V 19.965356 l -13.993902,-5.35e-4 c -7.696647,-3.27e-4 -13.993902,0.02812 -13.993902,0.06319 0,0.03506 0.199681,2.220166 0.443737,4.855778 0.244055,2.635614 0.501335,5.429101 0.571735,6.20775 l 0.127998,1.415725 7.105853,0.02801 7.105853,0.02801 v 21.296882 c 0,20.230731 -0.0095,21.29418 -0.190578,21.24285 -0.104819,-0.02972 -1.646604,-0.262628 -3.426191,-0.51758 l -3.235614,-0.463542 -0.05286,-0.279298 c -0.02907,-0.153617 -0.237302,-2.398805 -0.462727,-4.989312 l -0.409866,-4.710019 h -6.309555 -6.309555 l 0.06643,0.84399 c 0.06461,0.820945 1.099575,12.496102 1.223615,13.803325 0.0341,0.359378 0.147697,1.620041 0.252438,2.801479 0.10474,1.181435 0.215839,2.173464 0.246885,2.204515 0.03105,0.03104 5.247327,1.084865 11.591733,2.341815 6.344405,1.25693 13.323997,2.649103 15.510203,3.09369 2.186207,0.444592 4.011677,0.813178 4.056599,0.819088 0.04492,0.0059 0.08168,-15.760983 0.08168,-35.037535 z m 20.961902,31.822218 c 7.246478,-1.647828 13.182935,-3.004994 13.19213,-3.015926 0.0092,-0.01095 0.145463,-1.441046 0.302825,-3.17803 0.709624,-7.832964 1.76066,-19.490987 2.405441,-26.680982 0.386737,-4.312517 0.729524,-8.024711 0.761752,-8.249324 l 0.0586,-0.408379 h -8.849804 -8.849801 v -6.370766 -6.370765 h 9.393023 c 5.166168,0 9.39325,-0.03675 9.393522,-0.08168 2.18e-4,-0.04492 0.245296,-2.826006 0.544503,-6.180186 0.299203,-3.354181 0.544009,-6.151672 0.544013,-6.216647 8e-6,-0.0844 -4.712307,-0.118137 -16.498637,-0.118137 H 53.470864 v 18.985402 18.985399 h 8.524391 8.524395 L 70.335349,59.9233 c -0.101368,1.093101 -0.209252,2.256993 -0.239743,2.586419 -0.817483,8.831839 -1.077523,11.599531 -1.090472,11.606347 -0.0086,0.0046 -3.507411,0.640043 -7.775007,1.412188 l -7.759263,1.403899 v 6.553306 6.553307 l 0.462833,-0.103431 c 0.254557,-0.05688 6.391767,-1.451652 13.638245,-3.099481 z"
       id="path1027" />
    <path
       style="fill:#000000;stroke-width:0.264583"
       id="path989"
       d="" />
    <path
       style="fill:#000000;stroke-width:0.264583"
       id="path969"
       d="" />
    <path
       style="fill:#000000;stroke-width:0.264583"
       id="path949"
       d="" />
  </g>
</svg>
