<?xml version="1.0" encoding="UTF-8" standalone="no"?>
<!-- Created with Inkscape (http://www.inkscape.org/) -->

<svg
   width="100mm"
   height="101.00036mm"
   viewBox="0 0 100 101.00036"
   version="1.1"
   id="svg5"
   inkscape:version="1.1.1 (3bf5ae0d25, 2021-09-20)"
   sodipodi:docname="threeJsLogo.svg"
   xmlns:inkscape="http://www.inkscape.org/namespaces/inkscape"
   xmlns:sodipodi="http://sodipodi.sourceforge.net/DTD/sodipodi-0.dtd"
   xmlns="http://www.w3.org/2000/svg"
   xmlns:svg="http://www.w3.org/2000/svg">
  <sodipodi:namedview
     id="namedview7"
     pagecolor="#ffffff"
     bordercolor="#666666"
     borderopacity="1.0"
     inkscape:pageshadow="2"
     inkscape:pageopacity="0.0"
     inkscape:pagecheckerboard="0"
     inkscape:document-units="mm"
     showgrid="false"
     inkscape:zoom="0.72337262"
     inkscape:cx="396.75265"
     inkscape:cy="560.56864"
     inkscape:window-width="2400"
     inkscape:window-height="1271"
     inkscape:window-x="-9"
     inkscape:window-y="-9"
     inkscape:window-maximized="1"
     inkscape:current-layer="layer1"
     fit-margin-top="0"
     fit-margin-left="0"
     fit-margin-right="0"
     fit-margin-bottom="0" />
  <defs
     id="defs2" />
  <g
     inkscape:label="Capa 1"
     inkscape:groupmode="layer"
     id="layer1">
    <path
       style="fill:#000000;stroke-width:0.282222"
       id="path61"
       d="" />
    <path
       style="fill:#000000;stroke-width:0.282222"
       id="path41"
       d="" />
    <path
       style="fill:#000000;stroke-width:0.282222"
       id="path21"
       d="" />
    <path
       style="fill:#01E1F9;stroke-width:0.106714"
       d="M 25.237857,100.96481 C 24.96413,100.87922 24.737218,100.727 24.577955,100.52215 24.473647,100.38798 20.985045,86.366478 12.697065,52.770066 12.117903,50.42236 9.0241339,37.895771 5.8220215,24.933205 2.6199094,11.970639 0,1.2227184 0,1.0489355 0,0.87515295 0.04944484,0.64057874 0.10987715,0.52765928 0.24377736,0.27746496 0.75615533,0 1.0842739,0 1.2796333,0 23.660399,6.377894 26.731854,7.3088454 c 0.469539,0.1423169 5.799904,1.6793899 11.845253,3.4157176 6.045345,1.736329 12.384156,3.559808 14.086246,4.052177 1.702087,0.492369 7.296567,2.100622 12.43218,3.573897 5.135609,1.473275 9.649609,2.77377 10.031113,2.889988 0.381505,0.116217 6.024005,1.744582 12.538893,3.618588 13.118581,3.773558 12.326032,3.489774 12.324931,4.413048 0,0.308705 -0.07486,0.534794 -0.240106,0.728647 -0.131759,0.154586 -7.850945,7.595376 -17.15374,16.535088 -9.302791,8.939714 -18.114699,17.413064 -19.582016,18.829674 -4.932836,4.762357 -36.509747,35.10312 -36.771136,35.33165 -0.295616,0.25845 -0.694899,0.36466 -1.005615,0.26749 z M 34.14637,90.010716 c 7.587686,-7.293614 7.869036,-7.577848 7.595781,-7.673622 -0.397291,-0.139253 -20.876515,-6.020286 -20.893088,-5.999886 -0.05623,0.06922 5.262129,21.298533 5.330134,21.276306 0.04819,-0.01577 3.633421,-3.437004 7.967173,-7.602798 z M 42.321137,79.955452 C 42.28887,79.85274 41.156792,75.278713 39.805443,69.790946 38.454095,64.303178 37.312757,59.729325 37.269137,59.626819 c -0.06389,-0.150127 -1.568504,1.248515 -7.737659,7.192685 -4.212092,4.058476 -7.634806,7.402594 -7.606028,7.431367 0.05065,0.05066 20.191445,5.869272 20.367159,5.884013 0.04798,0.004 0.06081,-0.07672 0.02852,-0.179432 z m 11.284194,-8.668339 c 5.753186,-5.530428 6.356686,-6.141938 6.134335,-6.215763 -0.514183,-0.170713 -20.197665,-5.831412 -20.209757,-5.812048 -0.007,0.01117 1.129466,4.63036 2.525438,10.264858 1.395972,5.634498 2.54105,10.287348 2.544616,10.339664 0.0036,0.05232 0.595518,-0.47592 1.315447,-1.173856 0.719933,-0.697935 4.180395,-4.029219 7.689921,-7.402855 z M 28.838846,64.361814 c 3.565246,-3.435628 6.446524,-6.278932 6.402839,-6.318455 -0.08281,-0.07493 -20.105681,-5.860221 -20.282193,-5.860221 -0.05539,0 0.320916,1.69275 0.836228,3.761667 0.515313,2.068918 1.667872,6.726676 2.561249,10.350574 l 1.624321,6.588906 1.187645,-1.137938 c 0.653206,-0.625865 4.104665,-3.948905 7.669911,-7.384533 z m 31.750266,-1.533955 c -0.02602,-0.07336 -1.195651,-4.803105 -2.59923,-10.510533 -1.403583,-5.707429 -2.589663,-10.364932 -2.635735,-10.350013 -0.154185,0.04994 -15.55967,14.936974 -15.50929,14.987354 0.04916,0.04915 20.523755,5.982014 20.70007,5.998192 0.0503,0.0046 0.07018,-0.05163 0.04418,-0.125 z m 10.322333,-8.189713 c 4.108489,-3.947295 7.483412,-7.21125 7.499831,-7.253225 0.03013,-0.07701 -1.030237,-0.388627 -13.778332,-4.04922 -6.467199,-1.857041 -7.021291,-1.999069 -6.972549,-1.787265 0.02912,0.126548 1.197087,4.874547 2.595467,10.551104 l 2.542514,10.321014 0.321545,-0.30275 c 0.176848,-0.166515 3.683034,-3.532359 7.791524,-7.479658 z M 33.79618,45.426616 c -1.420289,-5.740986 -2.620929,-10.43774 -2.66809,-10.437233 -0.100449,0.0011 -15.547848,14.850482 -15.547848,14.945957 0,0.08455 20.749401,6.064677 20.777074,5.988101 0.01166,-0.03227 -1.140851,-4.755839 -2.561136,-10.496825 z m 12.469497,2.11712 C 53.036553,41.021056 53.87813,40.17519 53.658356,40.1134 53.521955,40.07504 48.96246,38.765275 43.526145,37.202789 38.089833,35.640302 33.582239,34.361903 33.509264,34.361903 c -0.07348,0 -0.111286,0.08332 -0.08474,0.186749 0.02638,0.102713 1.170189,4.73753 2.541828,10.299596 1.371636,5.56206 2.530951,10.100074 2.576257,10.084469 0.04531,-0.01561 3.520687,-3.340644 7.723063,-7.388981 z m -23.813609,-7.42431 c 4.434757,-4.266469 7.082233,-6.88721 6.989766,-6.919178 C 28.907303,33.015442 8.7962643,27.255514 8.7653778,27.27838 c -0.021187,0.01569 1.1294951,4.761909 2.5570762,10.54716 l 2.595603,10.518638 0.697698,-0.678516 c 0.383739,-0.37318 3.910076,-3.768987 7.836313,-7.546236 z m 56.302852,4.814739 c 0,-0.08171 -4.957894,-20.25442 -5.045667,-20.529834 -0.0296,-0.09285 -15.337616,14.622793 -15.335346,14.741896 0.0012,0.05736 20.022075,5.856516 20.300981,5.880259 0.04402,0.0036 0.08003,-0.03779 0.08003,-0.09232 z m 11.34039,-8.74899 c 3.625395,-3.485225 6.574734,-6.353661 6.554096,-6.3743 -0.04694,-0.04694 -20.713042,-6.005409 -20.738467,-5.979335 -0.02162,0.02218 5.060207,20.648961 5.141719,20.869868 0.03638,0.0986 0.45633,-0.241796 1.252884,-1.015569 0.658982,-0.640135 4.164378,-4.015435 7.789768,-7.500664 z m -35.671178,1.743371 c 0,-0.09951 -5.033285,-20.477688 -5.066455,-20.51246 -0.03666,-0.03845 -15.14967,14.504427 -15.215824,14.641826 -0.02569,0.05339 3.362779,1.075805 7.529957,2.272031 4.167182,1.196225 8.705195,2.504316 10.084474,2.906866 2.733316,0.797736 2.667848,0.78076 2.667848,0.691737 z m 11.238033,-9.006071 c 3.50079,-3.373189 6.330115,-6.166392 6.287391,-6.207119 -0.105858,-0.100902 -20.19349,-5.873264 -20.299118,-5.833132 -0.06147,0.02336 3.14764,13.254483 4.946646,20.394955 0.07522,0.298539 0.08556,0.291384 1.387898,-0.960426 0.721663,-0.693665 4.176397,-4.02109 7.677183,-7.394278 z m -35.462106,2.05951 c 0,-0.05832 -4.956692,-20.236154 -5.052874,-20.569371 -0.01565,-0.05429 -3.488517,3.235166 -7.717432,7.309908 -4.228914,4.074742 -7.6730351,7.427236 -7.6535995,7.449987 0.034323,0.04018 20.1837445,5.857329 20.3438695,5.873285 0.04402,0.0044 0.08004,-0.02433 0.08004,-0.06381 z m 9.972554,-7.905086 c 6.690482,-6.441278 7.592034,-7.346284 7.387736,-7.416061 -0.50074,-0.171024 -20.189098,-5.8244804 -20.210261,-5.8033182 -0.05773,0.057734 5.047656,20.5552632 5.119851,20.5555912 0.04523,2.14e-4 3.511438,-3.301089 7.702674,-7.336212 z M 15.783346,16.196925 C 20.002763,12.130764 23.42396,8.7718459 23.386011,8.732665 23.293745,8.6374129 2.7735691,2.7399872 2.7201781,2.7933786 2.6972207,2.816336 3.8384328,7.5289325 5.2562049,13.265815 c 1.9226498,7.779827 2.6130553,10.417156 2.7166188,10.377414 0.076369,-0.02931 3.5911033,-3.380142 7.8105223,-7.446304 z"
       id="path173" />
  </g>
</svg>
