<?xml version="1.0" encoding="UTF-8" standalone="no"?>
<!-- Created with Inkscape (http://www.inkscape.org/) -->

<svg
   width="100mm"
   height="99.993225mm"
   viewBox="0 0 100 99.993227"
   version="1.1"
   id="svg5"
   inkscape:version="1.1.1 (3bf5ae0d25, 2021-09-20)"
   sodipodi:docname="bootstrapLogo.svg"
   xmlns:inkscape="http://www.inkscape.org/namespaces/inkscape"
   xmlns:sodipodi="http://sodipodi.sourceforge.net/DTD/sodipodi-0.dtd"
   xmlns="http://www.w3.org/2000/svg"
   xmlns:svg="http://www.w3.org/2000/svg">
  <sodipodi:namedview
     id="namedview7"
     pagecolor="#ffffff"
     bordercolor="#666666"
     borderopacity="1.0"
     inkscape:pageshadow="2"
     inkscape:pageopacity="0.0"
     inkscape:pagecheckerboard="0"
     inkscape:document-units="mm"
     showgrid="false"
     inkscape:zoom="0.72337262"
     inkscape:cx="396.75265"
     inkscape:cy="560.56864"
     inkscape:window-width="2400"
     inkscape:window-height="1271"
     inkscape:window-x="-9"
     inkscape:window-y="-9"
     inkscape:window-maximized="1"
     inkscape:current-layer="layer1"
     fit-margin-top="0"
     fit-margin-left="0"
     fit-margin-right="0"
     fit-margin-bottom="0" />
  <defs
     id="defs2" />
  <g
     inkscape:label="Capa 1"
     inkscape:groupmode="layer"
     id="layer1">
    <path
       style="fill:#000000;stroke-width:0.282222"
       id="path61"
       d="" />
    <path
       style="fill:#000000;stroke-width:0.282222"
       id="path41"
       d="" />
    <path
       style="fill:#000000;stroke-width:0.282222"
       id="path21"
       d="" />
    <path
       style="fill:#01E1F9;stroke-width:0.0750823"
       d="M 15.054082,99.949572 C 12.726087,99.661931 10.913817,99.126069 9.0508671,98.174535 4.6303724,95.916727 1.3567228,91.638994 0.33504749,86.785417 -0.01426555,85.125977 8.2689413e-5,86.702751 8.2689413e-5,49.995081 8.2689413e-5,13.287514 -0.01343213,14.864179 0.33504749,13.204735 1.3583671,8.3434007 4.6133888,4.0928189 9.063143,1.807134 10.543151,1.0469097 11.974596,0.56534286 13.852772,0.19581392 l 0.825914,-0.16249318 34.80066,-0.02570068 c 25.842948,-0.019146 35.013248,-0.00337871 35.626551,0.06059144 7.791113,0.81393224 14.011962,7.0347856 14.825892,14.8258875 0.06397,0.613318 0.07974,9.78361 0.06059,35.626568 l -0.02568,34.800665 -0.167584,0.863441 c -0.232613,1.1989 -0.493471,2.1248 -0.881436,3.128613 -2.035085,5.265532 -6.62929,9.188366 -12.122456,10.350933 -1.655835,0.350441 -0.05045,0.336341 -36.900119,0.324356 -19.038686,-0.0068 -34.717161,-0.02388 -34.841047,-0.03897 z M 57.926108,79.96481 c 3.069756,-0.353944 5.301481,-0.865631 7.465744,-1.711749 4.078142,-1.594343 6.887422,-3.956553 8.470278,-7.122303 1.279763,-2.559565 1.832001,-5.605046 1.599704,-8.822175 -0.195514,-2.707227 -0.66806,-4.556206 -1.698407,-6.644786 -0.305593,-0.619429 -0.783499,-1.447212 -1.062017,-1.839518 -0.638463,-0.899282 -1.958208,-2.221131 -2.837527,-2.842038 -1.22023,-0.861653 -3.441233,-1.836044 -4.846662,-2.126334 -0.245474,-0.0507 -0.444975,-0.127669 -0.443331,-0.17103 0.0016,-0.04336 0.289578,-0.211484 0.639837,-0.373612 2.128178,-0.985136 4.137562,-2.629439 5.427574,-4.441441 1.564543,-2.197633 2.365881,-5.17848 2.23882,-8.328104 -0.105641,-2.617298 -0.557351,-4.519587 -1.523661,-6.415861 -0.606162,-1.189549 -1.237732,-2.03312 -2.235013,-2.985275 -2.613856,-2.49561 -6.382712,-3.974179 -11.157813,-4.377366 -0.521086,-0.04399 -6.810095,-0.07316 -15.861127,-0.07354 l -14.99771,-6.42e-4 v 29.209806 29.2098 l 15.035236,-0.02863 c 10.698399,-0.02027 15.251812,-0.05361 15.786075,-0.115214 z M 37.391084,62.608162 v -9.08991 l 9.967179,0.02696 c 9.028147,0.02442 10.027297,0.03903 10.605371,0.155083 2.196023,0.440853 3.5264,1.0634 4.750234,2.222865 1.281565,1.214172 1.904914,2.368563 2.317904,4.292631 0.218039,1.015833 0.240699,3.316258 0.04325,4.392999 -0.357828,1.951495 -1.097944,3.401628 -2.354394,4.613029 -1.223114,1.179258 -2.55518,1.847386 -4.509242,2.261728 l -0.81089,0.171931 -10.004705,0.0214 -10.004728,0.0214 z m 0,-24.552514 v -8.039687 l 9.10374,0.02658 c 8.242192,0.02406 9.177057,0.03899 9.878724,0.157786 3.933376,0.6659 5.757629,2.528507 6.166137,6.295761 0.546179,5.036931 -1.588172,8.278388 -6.203505,9.421248 -0.464009,0.114899 -1.382724,0.129292 -9.728733,0.152447 l -9.216363,0.02554 z"
       id="path381" />
  </g>
</svg>
